<svg data-v-423bf9ae="" xmlns="http://www.w3.org/2000/svg" viewBox="0 0 284.56460994339835 60" class="font"><!----><!----><!----><g data-v-423bf9ae="" id="37b8cf6c-aab2-4530-baa0-1c7f5b4c1234" fill="#81E291" transform="matrix(3.4149118407597263,0,0,3.4149118407597263,-1.3318171602229825,-8.40068230486316)"><path d="M4.70 5.10L4.70 5.10L4.70 5.10Q4.06 5.10 3.64 5.48L3.64 5.48L3.64 5.48Q3.22 5.87 3.22 6.57L3.22 6.57L3.22 6.57Q3.22 7.27 3.58 7.82L3.58 7.82L3.58 7.82Q3.93 8.37 4.46 8.76L4.46 8.76L4.46 8.76Q4.98 9.14 5.61 9.59L5.61 9.59L5.61 9.59Q6.23 10.04 6.75 10.44L6.75 10.44L6.75 10.44Q7.28 10.84 7.64 11.42L7.64 11.42L7.64 11.42Q7.99 12.01 7.99 12.67L7.99 12.67L7.99 12.67Q7.99 13.97 6.93 14.88L6.93 14.88L6.93 14.88Q5.87 15.78 4.14 15.78L4.14 15.78L4.14 15.78Q2.41 15.78 1.40 15.04L1.40 15.04L1.40 15.04Q0.39 14.29 0.39 13.36L0.39 13.36L0.39 13.36Q0.39 12.42 0.95 11.89L0.95 11.89L0.95 11.89Q1.51 11.37 2.39 11.37L2.39 11.37L2.39 11.37Q2.65 11.37 2.87 11.42L2.87 11.42L2.87 11.42Q2.44 12.07 2.44 12.82L2.44 12.82L2.44 12.82Q2.44 13.57 2.90 14.11L2.90 14.11L2.90 14.11Q3.36 14.64 4.12 14.64L4.12 14.64L4.12 14.64Q4.89 14.64 5.40 14.25L5.40 14.25L5.40 14.25Q5.92 13.85 5.92 13.22L5.92 13.22L5.92 13.22Q5.92 12.60 5.57 12.12L5.57 12.12L5.57 12.12Q5.22 11.65 4.70 11.30L4.70 11.30L4.70 11.30Q4.19 10.96 3.57 10.52L3.57 10.52L3.57 10.52Q2.95 10.08 2.44 9.63L2.44 9.63L2.44 9.63Q1.92 9.18 1.57 8.49L1.57 8.49L1.57 8.49Q1.22 7.80 1.22 6.97L1.22 6.97L1.22 6.97Q1.22 5.64 2.18 4.85L2.18 4.85L2.18 4.85Q3.15 4.06 4.79 4.06L4.79 4.06L4.79 4.06Q6.43 4.06 7.27 4.79L7.27 4.79L7.27 4.79Q8.12 5.53 8.12 6.36L8.12 6.36L8.12 6.36Q8.12 7.20 7.59 7.76L7.59 7.76L7.59 7.76Q7.06 8.33 6.15 8.33L6.15 8.33L6.15 8.33Q5.84 8.33 5.54 8.27L5.54 8.27L5.54 8.27Q6.23 7.55 6.23 6.74L6.23 6.74L6.23 6.74Q6.23 5.94 5.78 5.52L5.78 5.52L5.78 5.52Q5.33 5.10 4.70 5.10ZM11.72 11.10L11.72 11.10Q12.18 9.52 13.16 8.44L13.16 8.44L13.16 8.44Q14.14 7.35 14.99 7.35L14.99 7.35L14.99 7.35Q15.83 7.35 16.19 7.86L16.19 7.86L16.19 7.86Q16.55 8.37 16.55 9.25L16.55 9.25L16.55 9.25Q16.55 10.12 16.28 11.70L16.28 11.70L16.28 11.70Q16.00 13.29 16.00 14.01L16.00 14.01L16.00 14.01Q16.00 14.73 16.18 15.06L16.18 15.06L16.18 15.06Q16.37 15.39 16.80 15.62L16.80 15.62L16.80 15.62Q16.62 15.64 16.28 15.64L16.28 15.64L16.28 15.64Q15.11 15.64 14.61 15.27L14.61 15.27L14.61 15.27Q14.11 14.91 14.11 14L14.11 14L14.11 14Q14.11 13.48 14.39 11.98L14.39 11.98L14.39 11.98Q14.67 10.47 14.67 9.73L14.67 9.73L14.67 9.73Q14.67 8.81 14.11 8.81L14.11 8.81L14.11 8.81Q13.78 8.81 13.37 9.18L13.37 9.18L13.37 9.18Q12.96 9.56 12.59 10.21L12.59 10.21L12.59 10.21Q12.22 10.86 11.97 11.89L11.97 11.89L11.97 11.89Q11.72 12.91 11.72 13.92L11.72 13.92L11.72 13.92Q11.72 14.94 11.80 15.43L11.80 15.43L11.80 15.43Q11.35 15.46 11.21 15.46L11.21 15.46L11.21 15.46Q10.42 15.46 10.07 15.18L10.07 15.18L10.07 15.18Q9.72 14.91 9.72 14.31L9.72 14.31L9.72 14.31Q9.72 13.71 9.95 12.01L9.95 12.01L9.95 12.01Q10.71 6.80 10.71 4.10L10.71 4.10L10.71 4.10Q10.71 2.88 10.54 2.46L10.54 2.46L10.54 2.46Q11.59 2.74 11.98 3.31L11.98 3.31L11.98 3.31Q12.36 3.88 12.36 4.91L12.36 4.91L12.36 4.91Q12.36 5.61 12.09 7.85L12.09 7.85L12.09 7.85Q11.82 10.09 11.72 11.10L11.72 11.10ZM22.55 8.41L22.55 8.41L22.55 8.41Q21.64 8.41 20.93 9.64L20.93 9.64L20.93 9.64Q20.22 10.86 20.22 12.08L20.22 12.08L20.22 12.08Q20.22 14.63 21.53 14.63L21.53 14.63L21.53 14.63Q22.47 14.63 23.06 13.41L23.06 13.41L23.06 13.41Q23.65 12.18 23.65 10.65L23.65 10.65L23.65 10.65Q23.65 8.41 22.55 8.41ZM23.42 7.39L23.42 7.39L23.42 7.39Q24.26 7.39 24.85 8.22L24.85 8.22L24.85 8.22Q25.44 9.04 25.44 10.43L25.44 10.43L25.44 10.43Q25.44 11.98 24.81 13.29L24.81 13.29L24.81 13.29Q24.11 14.76 22.82 15.32L22.82 15.32L22.82 15.32Q22.09 15.64 21.22 15.64L21.22 15.64L21.22 15.64Q20.01 15.64 19.10 14.69L19.10 14.69L19.10 14.69Q18.20 13.75 18.20 11.98L18.20 11.98L18.20 11.98Q18.20 10.21 19.07 8.86L19.07 8.86L19.07 8.86Q19.94 7.50 21.36 7.15L21.36 7.15L21.36 7.15Q21.52 7.15 21.65 7.25L21.65 7.25L21.65 7.25Q21.78 7.34 21.78 7.43L21.78 7.43L21.78 7.43Q20.37 8.41 20.09 10.16L20.09 10.16L20.09 10.16Q20.38 9.38 20.81 8.81L20.81 8.81L20.81 8.81Q21.24 8.23 21.70 7.94L21.70 7.94L21.70 7.94Q22.58 7.39 23.42 7.39ZM30.76 8.36L30.76 8.36L30.76 8.36Q31.65 7.69 32.52 7.69L32.52 7.69L32.52 7.69Q33.39 7.69 33.96 8.38L33.96 8.38L33.96 8.38Q34.52 9.07 34.52 10.39L34.52 10.39L34.52 10.39Q34.52 12.49 33.38 13.96L33.38 13.96L33.38 13.96Q32.23 15.43 30.62 15.43L30.62 15.43L30.62 15.43Q30.04 15.43 29.46 15.20L29.46 15.20L29.46 15.20Q30.83 14.88 31.64 13.43L31.64 13.43L31.64 13.43Q32.45 11.97 32.45 10.53L32.45 10.53L32.45 10.53Q32.45 9.86 32.21 9.44L32.21 9.44L32.21 9.44Q31.96 9.02 31.51 9.02L31.51 9.02L31.51 9.02Q30.66 9.02 30.00 10.05L30.00 10.05L30.00 10.05Q29.34 11.09 28.99 12.89L28.99 12.89L28.99 12.89Q28.64 14.69 28.64 16.64L28.64 16.64L28.64 16.64Q28.64 18.59 28.92 20.03L28.92 20.03L28.92 20.03Q27.78 19.99 27.22 19.66L27.22 19.66L27.22 19.66Q26.67 19.33 26.67 18.41L26.67 18.41L26.67 18.41Q26.67 18.07 27.10 14.86L27.10 14.86L27.10 14.86Q27.52 11.65 27.52 9.91L27.52 9.91L27.52 9.91Q27.52 8.18 27.31 6.99L27.31 6.99L27.31 6.99Q28.43 7.27 28.86 8.02L28.86 8.02L28.86 8.02Q29.29 8.78 29.29 10.23L29.29 10.23L29.29 10.23Q29.88 9.03 30.76 8.36ZM41.50 7.35L41.50 7.35L41.50 7.35Q42.32 7.35 42.68 7.86L42.68 7.86L42.68 7.86Q43.04 8.37 43.04 9.25L43.04 9.25L43.04 9.25Q43.04 10.12 42.76 11.70L42.76 11.70L42.76 11.70Q42.49 13.29 42.49 14.01L42.49 14.01L42.49 14.01Q42.49 14.73 42.67 15.06L42.67 15.06L42.67 15.06Q42.85 15.39 43.29 15.62L43.29 15.62L43.29 15.62Q43.11 15.64 42.77 15.64L42.77 15.64L42.77 15.64Q41.59 15.64 41.10 15.27L41.10 15.27L41.10 15.27Q40.60 14.91 40.60 14L40.60 14L40.60 14Q40.60 13.48 40.88 11.98L40.88 11.98L40.88 11.98Q41.16 10.47 41.16 9.73L41.16 9.73L41.16 9.73Q41.16 8.81 40.60 8.81L40.60 8.81L40.60 8.81Q40.28 8.81 39.87 9.18L39.87 9.18L39.87 9.18Q39.47 9.56 39.09 10.21L39.09 10.21L39.09 10.21Q38.71 10.86 38.46 11.89L38.46 11.89L38.46 11.89Q38.21 12.91 38.21 13.92L38.21 13.92L38.21 13.92Q38.21 14.94 38.29 15.43L38.29 15.43L38.29 15.43Q37.84 15.46 37.70 15.46L37.70 15.46L37.70 15.46Q36.90 15.46 36.55 15.18L36.55 15.18L36.55 15.18Q36.20 14.90 36.20 14.25L36.20 14.25L36.20 14.25Q36.20 13.97 36.50 12.10L36.50 12.10L36.50 12.10Q36.79 10.22 36.79 9.11L36.79 9.11L36.79 9.11Q36.79 7.99 36.55 7.06L36.55 7.06L36.55 7.06Q37.58 7.38 37.98 7.97L37.98 7.97L37.98 7.97Q38.39 8.57 38.39 9.33L38.39 9.33L38.39 9.33Q38.39 10.09 38.22 11.10L38.22 11.10L38.22 11.10Q38.68 9.53 39.68 8.44L39.68 8.44L39.68 8.44Q40.67 7.35 41.50 7.35ZM48.69 5.10L48.69 5.10L48.69 5.10Q48.05 5.10 47.63 5.48L47.63 5.48L47.63 5.48Q47.21 5.87 47.21 6.57L47.21 6.57L47.21 6.57Q47.21 7.27 47.56 7.82L47.56 7.82L47.56 7.82Q47.92 8.37 48.45 8.76L48.45 8.76L48.45 8.76Q48.97 9.14 49.59 9.59L49.59 9.59L49.59 9.59Q50.22 10.04 50.74 10.44L50.74 10.44L50.74 10.44Q51.27 10.84 51.63 11.42L51.63 11.42L51.63 11.42Q51.98 12.01 51.98 12.67L51.98 12.67L51.98 12.67Q51.98 13.97 50.92 14.88L50.92 14.88L50.92 14.88Q49.85 15.78 48.13 15.78L48.13 15.78L48.13 15.78Q46.40 15.78 45.39 15.04L45.39 15.04L45.39 15.04Q44.38 14.29 44.38 13.36L44.38 13.36L44.38 13.36Q44.38 12.42 44.94 11.89L44.94 11.89L44.94 11.89Q45.50 11.37 46.38 11.37L46.38 11.37L46.38 11.37Q46.63 11.37 46.86 11.42L46.86 11.42L46.86 11.42Q46.42 12.07 46.42 12.82L46.42 12.82L46.42 12.82Q46.42 13.57 46.89 14.11L46.89 14.11L46.89 14.11Q47.35 14.64 48.11 14.64L48.11 14.64L48.11 14.64Q48.87 14.64 49.39 14.25L49.39 14.25L49.39 14.25Q49.91 13.85 49.91 13.22L49.91 13.22L49.91 13.22Q49.91 12.60 49.56 12.12L49.56 12.12L49.56 12.12Q49.21 11.65 48.69 11.30L48.69 11.30L48.69 11.30Q48.17 10.96 47.56 10.52L47.56 10.52L47.56 10.52Q46.94 10.08 46.42 9.63L46.42 9.63L46.42 9.63Q45.91 9.18 45.56 8.49L45.56 8.49L45.56 8.49Q45.21 7.80 45.21 6.97L45.21 6.97L45.21 6.97Q45.21 5.64 46.17 4.85L46.17 4.85L46.17 4.85Q47.14 4.06 48.78 4.06L48.78 4.06L48.78 4.06Q50.41 4.06 51.26 4.79L51.26 4.79L51.26 4.79Q52.11 5.53 52.11 6.36L52.11 6.36L52.11 6.36Q52.11 7.20 51.58 7.76L51.58 7.76L51.58 7.76Q51.04 8.33 50.13 8.33L50.13 8.33L50.13 8.33Q49.83 8.33 49.53 8.27L49.53 8.27L49.53 8.27Q50.22 7.55 50.22 6.74L50.22 6.74L50.22 6.74Q50.22 5.94 49.77 5.52L49.77 5.52L49.77 5.52Q49.32 5.10 48.69 5.10ZM56.36 10.60L56.36 10.60L56.36 10.60Q56.14 11.84 56.01 12.81L56.01 12.81L56.01 12.81Q55.89 13.78 55.89 14.78L55.89 14.78L55.89 14.78Q55.89 15.79 56.08 16.23L56.08 16.23L56.08 16.23Q55.01 15.95 54.60 15.37L54.60 15.37L54.60 15.37Q54.19 14.78 54.19 13.72L54.19 13.72L54.19 13.72Q54.19 12.78 54.49 11.15L54.49 11.15L54.49 11.15Q54.78 9.52 54.87 8.95L54.87 8.95L54.87 8.95Q54.14 9.07 53.31 9.44L53.31 9.44L53.31 9.44Q53.28 9.13 53.28 8.97L53.28 8.97L53.28 8.97Q53.28 8.23 53.73 7.96L53.73 7.96L53.73 7.96Q54.18 7.69 55.02 7.67L55.02 7.67L55.02 7.67Q55.12 6.62 55.12 6.16L55.12 6.16L55.12 6.16Q55.12 5.70 55.11 5.39L55.11 5.39L55.11 5.39Q55.10 5.08 55.10 4.93L55.10 4.93L55.10 4.93Q56.03 5.03 56.45 5.48L56.45 5.48L56.45 5.48Q56.87 5.94 56.87 6.78L56.87 6.78L56.87 6.78Q56.87 7.11 56.80 7.71L56.80 7.71L56.80 7.71Q57.97 7.69 58.52 7.25L58.52 7.25L58.52 7.25Q58.55 7.53 58.55 7.67L58.55 7.67L58.55 7.67Q58.55 8.34 58.31 8.60L58.31 8.60L58.31 8.60Q58.07 8.86 57.51 8.86L57.51 8.86L57.51 8.86Q56.95 8.86 56.66 8.85L56.66 8.85L56.66 8.85Q56.59 9.35 56.36 10.60ZM59.42 13.13L59.42 13.13L59.42 13.13Q59.42 12.54 59.64 11.00L59.64 11.00L59.64 11.00Q59.86 9.46 59.86 8.61L59.86 8.61L59.86 8.61Q59.86 7.76 59.78 7.29L59.78 7.29L59.78 7.29Q60.09 7.27 60.35 7.27L60.35 7.27L60.35 7.27Q61.17 7.27 61.48 7.54L61.48 7.54L61.48 7.54Q61.80 7.81 61.80 8.47L61.80 8.47L61.80 8.47Q61.80 8.68 61.45 10.68L61.45 10.68L61.45 10.68Q61.11 12.67 61.10 13.96L61.10 13.96L61.10 13.96Q61.10 15.26 61.26 15.64L61.26 15.64L61.26 15.64Q60.17 15.36 59.79 14.79L59.79 14.79L59.79 14.79Q59.42 14.22 59.42 13.13ZM61.32 6.09L61.32 6.09L61.32 6.09Q59.88 6.09 59.88 5.08L59.88 5.08L59.88 5.08Q59.88 4.72 60.09 4.09L60.09 4.09L60.09 4.09Q60.48 4.03 60.77 4.03L60.77 4.03L60.77 4.03Q62.22 4.03 62.22 5.04L62.22 5.04L62.22 5.04Q62.22 5.40 62.01 6.03L62.01 6.03L62.01 6.03Q61.61 6.09 61.32 6.09ZM66.26 10.60L66.26 10.60L66.26 10.60Q66.04 11.84 65.91 12.81L65.91 12.81L65.91 12.81Q65.79 13.78 65.79 14.78L65.79 14.78L65.79 14.78Q65.79 15.79 65.98 16.23L65.98 16.23L65.98 16.23Q64.90 15.95 64.50 15.37L64.50 15.37L64.50 15.37Q64.09 14.78 64.09 13.72L64.09 13.72L64.09 13.72Q64.09 12.78 64.39 11.15L64.39 11.15L64.39 11.15Q64.68 9.52 64.76 8.95L64.76 8.95L64.76 8.95Q64.04 9.07 63.21 9.44L63.21 9.44L63.21 9.44Q63.18 9.13 63.18 8.97L63.18 8.97L63.18 8.97Q63.18 8.23 63.63 7.96L63.63 7.96L63.63 7.96Q64.08 7.69 64.92 7.67L64.92 7.67L64.92 7.67Q65.02 6.62 65.02 6.16L65.02 6.16L65.02 6.16Q65.02 5.70 65.01 5.39L65.01 5.39L65.01 5.39Q65.00 5.08 65.00 4.93L65.00 4.93L65.00 4.93Q65.93 5.03 66.35 5.48L66.35 5.48L66.35 5.48Q66.77 5.94 66.77 6.78L66.77 6.78L66.77 6.78Q66.77 7.11 66.70 7.71L66.70 7.71L66.70 7.71Q67.87 7.69 68.42 7.25L68.42 7.25L68.42 7.25Q68.45 7.53 68.45 7.67L68.45 7.67L68.45 7.67Q68.45 8.34 68.21 8.60L68.21 8.60L68.21 8.60Q67.97 8.86 67.41 8.86L67.41 8.86L67.41 8.86Q66.85 8.86 66.56 8.85L66.56 8.85L66.56 8.85Q66.49 9.35 66.26 10.60ZM70.80 12.26L70.80 12.26L70.80 12.26Q70.80 14.60 72.17 14.60L72.17 14.60L72.17 14.60Q72.70 14.60 73.25 14.24L73.25 14.24L73.25 14.24Q73.79 13.87 74.20 13.23L74.20 13.23L74.20 13.23Q74.70 13.34 74.70 13.75L74.70 13.75L74.70 13.75Q74.12 14.77 73.26 15.20L73.26 15.20L73.26 15.20Q72.41 15.64 71.55 15.64L71.55 15.64L71.55 15.64Q70.41 15.64 69.60 14.79L69.60 14.79L69.60 14.79Q68.80 13.94 68.80 12.33L68.80 12.33L68.80 12.33Q68.80 10.28 69.93 8.81L69.93 8.81L69.93 8.81Q71.06 7.35 73.00 7.35L73.00 7.35L73.00 7.35Q74.07 7.35 74.62 7.88L74.62 7.88L74.62 7.88Q75.17 8.40 75.17 9.12L75.17 9.12L75.17 9.12Q75.17 9.84 74.72 10.37L74.72 10.37L74.72 10.37Q74.28 10.91 73.60 10.91L73.60 10.91L73.60 10.91Q73.26 10.91 72.93 10.77L72.93 10.77L72.93 10.77Q73.14 10.53 73.32 10.02L73.32 10.02L73.32 10.02Q73.50 9.51 73.50 9.07L73.50 9.07L73.50 9.07Q73.50 8.22 72.76 8.22L72.76 8.22L72.76 8.22Q71.89 8.22 71.34 9.49L71.34 9.49L71.34 9.49Q70.80 10.77 70.80 12.26ZM78.64 11.10L78.64 11.10Q79.10 9.52 80.08 8.44L80.08 8.44L80.08 8.44Q81.06 7.35 81.91 7.35L81.91 7.35L81.91 7.35Q82.75 7.35 83.11 7.86L83.11 7.86L83.11 7.86Q83.47 8.37 83.47 9.25L83.47 9.25L83.47 9.25Q83.47 10.12 83.19 11.70L83.19 11.70L83.19 11.70Q82.92 13.29 82.92 14.01L82.92 14.01L82.92 14.01Q82.92 14.73 83.10 15.06L83.10 15.06L83.10 15.06Q83.29 15.39 83.72 15.62L83.72 15.62L83.72 15.62Q83.54 15.64 83.20 15.64L83.20 15.64L83.20 15.64Q82.03 15.64 81.53 15.27L81.53 15.27L81.53 15.27Q81.03 14.91 81.03 14L81.03 14L81.03 14Q81.03 13.48 81.31 11.98L81.31 11.98L81.31 11.98Q81.59 10.47 81.59 9.73L81.59 9.73L81.59 9.73Q81.59 8.81 81.03 8.81L81.03 8.81L81.03 8.81Q80.70 8.81 80.29 9.18L80.29 9.18L80.29 9.18Q79.88 9.56 79.51 10.21L79.51 10.21L79.51 10.21Q79.14 10.86 78.89 11.89L78.89 11.89L78.89 11.89Q78.64 12.91 78.64 13.92L78.64 13.92L78.64 13.92Q78.64 14.94 78.72 15.43L78.72 15.43L78.72 15.43Q78.27 15.46 78.13 15.46L78.13 15.46L78.13 15.46Q77.34 15.46 76.99 15.18L76.99 15.18L76.99 15.18Q76.64 14.91 76.64 14.31L76.64 14.31L76.64 14.31Q76.64 13.71 76.87 12.01L76.87 12.01L76.87 12.01Q77.63 6.80 77.63 4.10L77.63 4.10L77.63 4.10Q77.63 2.88 77.46 2.46L77.46 2.46L77.46 2.46Q78.51 2.74 78.90 3.31L78.90 3.31L78.90 3.31Q79.28 3.88 79.28 4.91L79.28 4.91L79.28 4.91Q79.28 5.61 79.01 7.85L79.01 7.85L79.01 7.85Q78.74 10.09 78.64 11.10L78.64 11.10Z"></path></g><!----><!----></svg>